<?xml version="1.0" encoding="utf-8"?>
<!-- Generator: Adobe Adobe Illustrator 28.5.0, SVG Export Plug-In . SVG Version: 6.00 Build 0)  -->
<svg version="1.1" id="Layer_1" xmlns="http://www.w3.org/2000/svg" xmlns:xlink="http://www.w3.org/1999/xlink" x="0px" y="0px"
	 width="1280px" height="720px" viewBox="0 0 1280 720" style="enable-background:new 0 0 1280 720;" xml:space="preserve">
<style type="text/css">
	.st0{fill:#8C002C;}
	.st1{fill:#DDDDDD;}
	.st2{fill:#5C1717;}
	.st3{fill:#3B3838;}
	.st4{fill:#363636;}
	.st5{fill:#303030;}
	.st6{fill:#5E5E5E;}
	.st7{fill:#575151;}
	.st8{fill:#454545;}
	.st9{fill:#8C8C8C;}
	.st10{fill:#4F4F4F;}
	.st11{fill:#171717;}
	.st12{fill:#707070;}
	.st13{fill:#1C1C1C;}
	.st14{fill:#D6D6C7;}
	.st15{fill:#6E6E6E;}
</style>
<circle class="st0" cx="626.56" cy="364.3" r="216.5"/>
<path d="M695.39,278.95c-0.01-0.03-0.01-0.05-0.01-0.08c0,0-0.01-0.01-0.01-0.01c-0.13-0.32-0.27-0.64-0.4-0.96
	c-0.09-0.35-0.14-0.7-0.14-1.05l-0.3-0.77l-2.11-5.57l-4.51-11.93c-0.2-0.14-0.38-0.29-0.51-0.45c-0.21-0.27-0.42-0.54-0.62-0.81
	c0,0,0,0,0,0c-0.01-0.02-0.02-0.03-0.03-0.05c-0.04-0.06-0.09-0.11-0.13-0.17c0.04,0.05,0.08,0.11,0.13,0.16
	c-0.01-0.02-0.03-0.04-0.04-0.06c-0.03-0.04-0.05-0.08-0.08-0.12c-0.05-0.05-0.11-0.09-0.17-0.15c-0.23-0.23-0.42-0.47-0.58-0.73
	c-0.38-0.4-0.73-0.83-1.01-1.35c-0.01-0.01-0.01-0.02-0.01-0.03c-0.9-0.14-1.86,0.1-2.58,0.83l-14.03,14.03
	c-0.05,0.05-0.11,0.11-0.17,0.16l-6.45,5.53c-0.54,0.47-1.24,0.72-1.95,0.72h-12.19c-1.2,0-2.29-0.72-2.76-1.83l-2.78-6.55
	c-0.38,0.01-0.79-0.03-1.23-0.15c-0.3-0.09-0.61-0.15-0.91-0.23c-4.64-0.26-9.32-0.07-13.95-0.31c-1.4-0.07-2.81-0.13-4.22-0.18
	c-0.58,0.11-1.16,0.2-1.74,0.25c-2.65,0.25-5.5-0.13-8.11-0.63c-0.06-0.01-0.13-0.03-0.19-0.04c-0.46-0.03-0.93-0.05-1.39-0.08
	c-1.16-0.08-2.5-0.15-3.83-0.32c-0.79,0.06-1.59,0.1-2.4,0.1c-0.69,0-1.29-0.17-1.8-0.45c-0.27-0.07-0.53-0.17-0.78-0.32
	l-10.32-6.11c-0.6-0.36-1.31-0.49-2-0.38l-24.56,3.88c-2.11,0.33-3.88-1.58-3.39-3.66l1.52-6.37c0.05-0.23,0.08-0.46,0.08-0.69
	v-5.08c0-1.66,1.34-3,3-3h21.41c1.66,0,3-1.34,3-3v-6.12c0-1.66-1.34-3-3-3H526.2c-1.66,0-3,1.34-3,3v6.12c0,1.66,1.34,3,3,3h16.14
	c1.66,0,3,1.34,3,3v4.47c0,0.63-0.2,1.23-0.56,1.74l-6.5,9.11c-0.53,0.75-1.38,1.21-2.3,1.25l-60.14,2.9
	c-1.2,0.06-2.25,0.83-2.67,1.95l-6.14,16.5c-0.44,1.17-1.56,1.95-2.81,1.95h-10.48c-1.47,0-2.72,1.07-2.96,2.52l-2.8,17.15
	c-0.3,1.83,1.11,3.48,2.96,3.48h3.46c1.96,0,3.4,1.85,2.9,3.75l-8.93,34.54c-0.49,1.9,0.94,3.75,2.9,3.75h61.62c1.66,0,3,1.34,3,3
	v23.05c0,0.27-0.04,0.53-0.11,0.79l-2.65,9.72c-0.05,0.19-0.12,0.38-0.21,0.56l-53.96,107.36c-0.44,0.88-0.42,1.93,0.05,2.79
	l0.52,0.95c1.11,2.02,3.98,2.08,5.18,0.12l52.26-85.15c1.63-2.65,5.72-1.38,5.55,1.73l-6.55,121.43c-0.06,1.13-0.98,12.24,0,12.8
	l7.52,3.58c1.94,1.12,7.18,5.68,7.29,3.44l6.13-140.61c0.14-2.97,4.07-3.94,5.58-1.38l79.77,135.06c0.02,0.04,0.04,0.09,0.07,0.13
	l11.99,29.48c0.58,1.22,3.23,0.24,4.56,0l16.77-2.09c2.06-0.37,3.4,1.8,2.35,0L537.84,371.15c-0.27-0.46-0.41-0.99-0.41-1.52V355
	c0-1.66,1.34-3,3-3h42.59c1.14,0,2.18-0.64,2.68-1.66l4.11-8.21c0.22-0.44,14.75-2.57,15.16-2.86l6.44-12.85
	c0.24-0.17,0.49-0.3,0.77-0.39l25.3-2.35c0.43-0.15,5.57-1.38,5.89-1.7l1.27-11.16c0.56-0.55,1.32-0.86,2.1-0.86h17.12
	c0.41,0,0.82,0.09,1.2,0.25l9.61,4.2c0.24,0.11,0.47,0.24,0.67,0.41l7.45,5.96c1.46,1.16,3.61,0.73,4.5-0.9l6.65-12.36
	c0-0.01,0-0.02,0-0.02c0.02-0.06,0.05-0.11,0.07-0.16c0.01-0.02,0.01-0.04,0.02-0.06c-0.01,0.02-0.03,0.03-0.04,0.05
	c0.02-0.06,0.05-0.13,0.07-0.19c0.03-0.1,0.07-0.19,0.11-0.28c0.02-0.04,0.03-0.07,0.05-0.11c0.03-0.07,0.06-0.13,0.09-0.19
	c0.01-0.04,0.03-0.07,0.04-0.11c0.05-0.16,0.1-0.31,0.17-0.47c0.04-0.13,0.09-0.26,0.15-0.38c0.02-0.04,0.04-0.09,0.06-0.13
	c0.02-0.06,0.04-0.12,0.07-0.19c0.03-0.07,0.06-0.15,0.09-0.22l2.06-9.7C697.24,289.82,696.77,284.7,695.39,278.95z"/>
<circle class="st2" cx="628.34" cy="312.43" r="6.25"/>
<path class="st3" d="M452.42,332.61v0.45l-3.81,14.54c0,0-1.72,3.84,2.89,4.41h1.71"/>
<ellipse class="st3" cx="532.91" cy="331.51" rx="59.25" ry="1.1"/>
<path d="M681.68,299.43c0,0,1.21-16.26-3.03-27.88C674.42,259.92,681.68,299.43,681.68,299.43z"/>
<path class="st4" d="M468.41,318.06v-21c0-3.87,3.13-7,7-7h122c3.87,0,7,3.13,7,7v21c0,3.87-3.13,7-7,7h-122
	C471.55,325.06,468.41,321.92,468.41,318.06z"/>
<path class="st5" d="M515.81,363.13c0.84-11.13-2.76-11.3-2.76-11.3h27C540.05,351.82,514.97,374.26,515.81,363.13z"/>
<path class="st6" d="M458.61,496.3c0,0,47.38-61.75,48.7-96.9"/>
<path class="st6" d="M515.63,550.97c0,0,20.12-134.23,6.55-134.23"/>
<path class="st7" d="M633.97,580.68c0,0-26.24-76.05-91.83-164.67"/>
<path class="st8" d="M523,233.63c0,0-4.75,12.93,8.69,10.13h55.79c0,0,6.15-0.53,1.55-11.7L523,233.63z"/>
<path class="st9" d="M528.78,231.63l59.7,0.17l1.61,1.31l0.66,3.24l-67.75-2.72C522.99,233.63,523.73,230.99,528.78,231.63z"/>
<path class="st10" d="M485.56,279.42h149.09c0,0,10.5,5,0,5c-10.5,0-155.65,0-155.65,0S463.39,281.7,485.56,279.42z"/>
<path class="st12" d="M646.98,275.88c0,0,4.14,22.75-1.82,34.07h17.11c0,0,7.21-35.35-1.48-34.07H646.98z"/>
<path class="st13" d="M684.5,254.32c0,0,28.96,29.31,2.82,65.75"/>
<path class="st14" d="M697.02,278.14l92.14-33.99c0,0,45.46,49.53,0,103.52l-92.14-48.24"/>
<g>
	<g>
		<path d="M712.85,365.62v102.25h59.19c0,0,38.37-5.41,38.37-53.17c0,0,0.77-40.95-37.01-48.32L712.85,365.62z"/>
		<path class="st0" d="M738.97,393.6v48.04h21.85c0,0,15.58-1.52,17.23-24.29c0,0,0.48-21.33-17.23-23.75H738.97z"/>
		<g>
			<polygon points="632.91,366.27 604.41,467.87 636.86,467.87 639.73,455.94 670.45,455.94 673.28,467.87 705.74,467.87 
				677.23,366.27 			"/>
			<polygon class="st0" points="655.08,390.76 646.98,426.28 664.92,426.28 656.59,390.76 			"/>
		</g>
	</g>
</g>
</svg>
